<svg xmlns="http://www.w3.org/2000/svg" width="35" height="35" viewBox="0 0 35 35"><defs><style>.a{fill:#08b22c;}.b{fill:#fff;}</style></defs><g transform="translate(-85.5 -85.5)"><path class="a" d="M108.273,120.5H97.727A12.224,12.224,0,0,1,85.5,108.273V97.727A12.224,12.224,0,0,1,97.727,85.5h10.546A12.224,12.224,0,0,1,120.5,97.727v10.546A12.224,12.224,0,0,1,108.273,120.5Z"/><g transform="translate(91.369 99.714)"><path class="b" d="M130.319,186.111h-1.956l-2.507-4.4v4.4H123.9V178.5h1.956l2.507,4.4v-4.4h1.956Z" transform="translate(-123.9 -178.5)"/><path class="b" d="M178.372,186.111H176.4V178.5h1.972Zm3.347-6.022h-4.035V178.5h4.035Zm-.535,2.889h-3.5v-1.513h3.5Zm.5,3.133h-4.02v-1.574h4.02Z" transform="translate(-168.376 -178.5)"/><path class="b" d="M219.31,185.836l-.4.275H217.69L216.1,178.5h1.941Zm.489-7.336h.948l.581.306-1.59,7.29h-1.055l-.367-.367Zm3.194,7.306-.382.321h-1.055l-1.635-7.306.6-.29h.948Zm.229-7.306h1.941l-1.59,7.611h-1.223l-.4-.321Z" transform="translate(-202.008 -178.5)"/></g></g></svg>