<svg width="17" height="20" viewBox="0 0 17 20" fill="none" xmlns="http://www.w3.org/2000/svg">
<path d="M16.0253 12.0731C15.9301 11.7468 15.6793 11.4982 15.3676 11.3996C15.0741 8.78939 12.9795 6.9246 11.4998 5.60715C11.1902 5.33154 10.8976 5.07112 10.6666 4.84295C10.3519 4.53231 9.39443 3.58629 10.6801 1.53027C10.889 1.19622 10.8824 0.770868 10.663 0.443648C10.4755 0.163547 10.1622 0 9.83217 0C9.77668 0 9.72041 0.00465032 9.66445 0.014261C7.60966 0.363497 5.68987 1.60604 4.25893 3.51265C3.52402 4.49169 2.97049 5.58018 2.61676 6.71993C2.47446 6.62367 2.30612 6.56306 2.12462 6.55097C2.10168 6.54942 2.07905 6.54849 2.05641 6.54849C2.01642 6.54849 1.97689 6.55097 1.93752 6.55562C1.76546 6.57609 1.60658 6.6401 1.4728 6.73652C1.38708 6.79806 1.3102 6.87386 1.24633 6.96206C1.21394 7.0067 1.18526 7.05413 1.1603 7.10389C-0.396592 10.0909 -0.386076 13.8419 1.18805 16.4447C2.57491 18.7373 5.04251 20 8.13602 20C11.6169 20 13.5253 18.4304 14.513 17.1137C16.0212 15.1034 16.2058 12.6935 16.0252 12.0733L16.0253 12.0731ZM8.13603 19C1.04401 19 -0.286936 12.0203 2.0563 7.54892C1.95229 8.75395 2.46027 9.67673 3.164 10.0034C3.01705 5.67242 6.14124 1.62761 9.83221 0.999835C8.87471 2.53117 8.59539 4.20232 9.96397 5.55417C11.5437 7.11432 15.0961 9.45621 14.2782 13.1037C14.2666 13.1546 14.3109 13.1925 14.3855 13.1925C14.5517 13.1925 14.8697 13.0044 15.065 12.3526C15.2083 12.8443 14.7721 19.0001 8.13573 19.0001L8.13603 19Z" fill="white"/>
<path d="M12.4864 13.629C12.2798 12.0757 10.9793 11.0081 10.0647 10.2573C9.87235 10.0993 9.69053 9.94988 9.54512 9.81767C9.33555 9.62654 8.69782 9.04541 9.4549 7.71931C9.5524 7.54849 9.54063 7.33597 9.42468 7.17661C9.30873 7.01773 9.11016 6.94193 8.91734 6.98223C6.99894 7.38818 5.41831 9.16507 4.91181 11.239C4.84655 11.1638 4.7585 11.1081 4.65604 11.0825C4.42508 11.0257 4.18545 11.1383 4.08343 11.3537C3.23335 13.1468 3.3253 15.354 4.31145 16.8461C5.13299 18.0888 6.50635 18.7638 8.19813 18.7638C8.28432 18.7638 8.37174 18.7621 8.45947 18.7586C10.4975 18.6767 11.5754 17.7161 12.1212 16.9248C12.9423 15.7337 13.0059 14.3069 12.8915 13.9656C12.8298 13.7833 12.6712 13.6551 12.4864 13.629L12.4864 13.629ZM11.1355 16.5714C10.5252 17.3115 9.61131 17.7112 8.41881 17.7592C6.95041 17.8181 5.81744 17.3117 5.14503 16.2946C4.57551 15.4327 4.3788 14.2661 4.56729 13.1282C4.70881 13.2744 4.87529 13.3902 5.06253 13.4681C5.22312 13.5351 5.40649 13.5139 5.5474 13.4122C5.68831 13.3103 5.76628 13.1431 5.75341 12.9698C5.61235 11.0674 6.65091 9.16403 8.14986 8.32975C7.9716 9.1899 8.21435 9.95795 8.87113 10.5569C9.03559 10.7067 9.22719 10.864 9.42978 11.0305C10.4666 11.8816 11.7574 12.941 11.4725 14.502C11.424 14.7691 11.5813 15.0254 11.8365 15.1114C11.7332 15.5537 11.5286 16.0946 11.1355 16.5714L11.1355 16.5714Z" fill="white"/>
</svg>
