<?xml version="1.0" encoding="UTF-8"?>
<svg id="Layer_1" xmlns="http://www.w3.org/2000/svg" version="1.1" viewBox="0 0 100 100">
  <!-- Generator: Adobe Illustrator 29.3.1, SVG Export Plug-In . SVG Version: 2.1.0 Build 151)  -->
  <defs>
    <style>
      .st0 {
        fill: #263d88;
      }

      .st1 {
        fill: #5091cd;
      }

      .st2 {
        fill: #19398a;
      }
    </style>
  </defs>
  <path class="st2" d="M38.91,33.28c-.1.88-.17,1.76-.21,2.63-.04.87-.05,1.75-.05,2.64s.01,1.76.05,2.63.1,1.75.21,2.63h-3.31c.12-.87.19-1.75.22-2.62.03-.88.04-1.76.04-2.64s-.02-1.77-.05-2.64-.1-1.75-.21-2.63h3.31Z"/>
  <path class="st2" d="M42.95,33.28c.9,1.06,1.83,2.1,2.77,3.1.95,1,1.92,2,2.91,2.98-.02-1.02-.06-2.04-.11-3.05-.06-1.01-.15-2.02-.28-3.03h2.02c-.08.77-.15,1.55-.21,2.35-.06.8-.08,1.59-.08,2.39,0,.97,0,1.94.02,2.9.02.96.03,1.92.05,2.89h-1.52c-1.01-1.14-2.03-2.25-3.05-3.34-1.02-1.09-2.06-2.17-3.14-3.24-.03.39-.05.79-.05,1.18,0,.91.02,1.82.07,2.71.05.9.14,1.79.28,2.68h-1.98c.11-.94.18-1.88.22-2.8.04-.93.05-1.87.05-2.82,0-.83-.01-1.65-.05-2.45-.03-.81-.07-1.62-.12-2.45h2.17Z"/>
  <path class="st2" d="M56.43,33.28c.48,0,.95.01,1.42.04.47.03.93.1,1.39.24,1.06.3,1.85.82,2.37,1.56.52.74.77,1.65.77,2.74,0,1.01-.18,1.9-.54,2.66-.36.76-.85,1.39-1.47,1.9-.62.51-1.35.89-2.18,1.15-.84.26-1.72.39-2.67.39-.54,0-1.11-.01-1.73-.05-.62-.03-1.18-.13-1.7-.29.09-.74.14-1.48.16-2.22.02-.74.02-1.48.02-2.23,0-.98-.01-1.96-.04-2.94-.02-.98-.1-1.96-.22-2.94h4.41ZM55.09,38.63c0,.49,0,.99,0,1.52,0,.53.02,1.03.05,1.52.01.19.03.35.06.49.03.13.08.24.15.31.07.08.17.13.3.16s.29.05.49.05c.57,0,1.05-.12,1.44-.37.39-.25.72-.57.96-.96.25-.4.43-.84.55-1.33.12-.49.19-.98.2-1.47.02-.51-.02-1-.13-1.48-.11-.48-.29-.91-.54-1.28s-.59-.68-1-.9-.9-.34-1.48-.34h-1.08v4.1Z"/>
  <path class="st2" d="M66.76,33.28c-.1.88-.17,1.76-.2,2.63-.04.87-.05,1.75-.05,2.64s.01,1.76.05,2.63.1,1.75.21,2.63h-3.31c.12-.87.19-1.75.22-2.62.02-.88.04-1.76.04-2.64s-.02-1.77-.05-2.64c-.03-.87-.1-1.75-.21-2.63h3.31Z"/>
  <path class="st2" d="M74.12,33.28c.42,1.15.85,2.28,1.3,3.4.45,1.12.92,2.24,1.41,3.36.28.64.58,1.27.88,1.89.3.62.61,1.25.91,1.88h-3.53c-.19-.52-.39-1.02-.61-1.51-.21-.49-.42-.99-.62-1.5h-3.3c-.18.5-.37.99-.56,1.49s-.35,1-.49,1.52h-2.1c.91-1.84,1.78-3.7,2.6-5.56.35-.82.7-1.64,1.05-2.46.34-.82.66-1.66.96-2.51h2.1ZM70.96,39.49h2.45l-1.28-3.19-1.17,3.19Z"/>
  <path class="st2" d="M81.49,33.28c.9,1.06,1.83,2.1,2.77,3.1.95,1,1.92,2,2.91,2.98-.02-1.02-.06-2.04-.11-3.05-.06-1.01-.15-2.02-.28-3.03h2.02c-.08.77-.15,1.55-.21,2.35-.06.8-.08,1.59-.08,2.39,0,.97,0,1.94.02,2.9.02.96.03,1.92.05,2.89h-1.52c-1.01-1.14-2.03-2.25-3.05-3.34-1.02-1.09-2.06-2.17-3.14-3.24-.03.39-.05.79-.05,1.18,0,.91.02,1.82.07,2.71.05.9.14,1.79.28,2.68h-1.98c.11-.94.19-1.88.22-2.8.04-.93.05-1.87.05-2.82,0-.83-.01-1.65-.04-2.45-.03-.81-.07-1.62-.12-2.45h2.17Z"/>
  <path class="st2" d="M35.6,57.14c.11-.88.18-1.76.21-2.63s.05-1.75.05-2.63-.02-1.77-.05-2.64c-.03-.87-.1-1.75-.21-2.63h4.44c.45,0,.89.04,1.3.11.41.08.77.21,1.08.41.31.2.55.47.73.81.18.34.26.77.26,1.3s-.09.99-.27,1.4c-.18.41-.43.74-.75,1.01-.32.27-.69.47-1.12.61-.43.14-.9.21-1.41.21-.12,0-.24,0-.36-.02-.12,0-.24-.02-.36-.05l-.33-.65c.33-.02.61-.1.82-.24.21-.14.38-.31.49-.52.12-.21.19-.46.24-.73.04-.27.06-.55.06-.84,0-.6-.11-1.01-.34-1.24-.23-.23-.63-.34-1.19-.34-.1,0-.17,0-.21.01v5.2c0,.69.02,1.37.06,2.05.04.68.11,1.36.2,2.04h-3.31Z"/>
  <path class="st2" d="M51.13,52.87c.15.17.29.36.43.56.14.2.27.4.4.59.12.19.22.34.29.46.29.45.59.89.87,1.33.29.44.58.88.87,1.33h-3.69c-.41-.79-.83-1.55-1.26-2.29-.11-.19-.23-.39-.34-.59s-.25-.38-.39-.55c-.06-.08-.12-.14-.17-.19-.05-.05-.13-.07-.23-.08.02.63.04,1.25.07,1.86.02.61.08,1.23.16,1.85h-3.31c.11-.88.18-1.76.21-2.63.03-.87.05-1.75.05-2.63s-.02-1.77-.05-2.64-.1-1.75-.21-2.63h4.76c.43,0,.84.05,1.25.14.41.09.77.24,1.09.46.32.21.57.49.77.84.19.35.29.77.29,1.28,0,.85-.22,1.53-.65,2.03-.43.5-1.06.86-1.88,1.07.05.02.1.04.14.05.05.01.09.03.13.05.12.06.26.18.4.35M47.92,52.06s.08,0,.16,0c.08,0,.13,0,.16,0,.3,0,.56-.07.77-.21.21-.14.38-.32.51-.55.13-.22.22-.47.27-.75.06-.28.08-.55.08-.81,0-.51-.12-.92-.37-1.25-.24-.33-.63-.49-1.17-.49h-.43v4.06Z"/>
  <path class="st2" d="M61.84,57.14c-.75-.05-1.5-.08-2.25-.09-.75-.01-1.49-.02-2.23-.02h-.7c-.22,0-.45.01-.68.03-.18.02-.36.04-.55.05-.18.01-.36.02-.55.03.11-.88.18-1.76.21-2.63s.05-1.75.05-2.63-.02-1.77-.05-2.64c-.03-.87-.1-1.75-.21-2.63.31,0,.62,0,.93.02.3.01.61.02.93.02.75,0,1.49,0,2.23,0s1.48-.02,2.23-.04v1.64c-.5-.14-.99-.24-1.48-.3-.49-.06-1-.08-1.51-.08-.04,0-.08,0-.12,0-.04,0-.08,0-.12,0v3.25c.05.01.09.02.12.02h.14c.43,0,.88-.02,1.36-.06s.93-.09,1.36-.14v1.55c-.43-.05-.85-.09-1.28-.13-.43-.04-.86-.05-1.29-.05-.07,0-.14,0-.21,0-.07,0-.13,0-.2,0v1.44c0,.32,0,.64.01.96.01.31.04.63.09.94.28.07.58.11.88.11.52,0,1.03-.04,1.53-.11.5-.07,1-.14,1.5-.21l-.12,1.67Z"/>
  <path class="st2" d="M66.34,46.61c.52,1.21,1.03,2.41,1.55,3.6.52,1.2,1.08,2.37,1.7,3.53.58-1.16,1.12-2.34,1.64-3.52s.99-2.38,1.41-3.61h2.43c.08,1.77.22,3.53.41,5.28.19,1.75.45,3.5.76,5.25h-3.28c0-1.07-.04-2.14-.11-3.19-.07-1.05-.17-2.12-.29-3.19-.52,1.04-1.01,2.1-1.47,3.16s-.9,2.14-1.31,3.22h-1.98c-.47-1.07-.93-2.14-1.4-3.19-.47-1.05-.96-2.11-1.47-3.16-.08.88-.14,1.75-.19,2.61-.05.86-.07,1.73-.07,2.61v.58c0,.18,0,.36.01.55h-1.97c.18-.79.33-1.58.44-2.38s.21-1.59.29-2.39c.1-.96.19-1.92.27-2.87.08-.95.12-1.91.12-2.89h2.49Z"/>
  <path class="st2" d="M80.87,46.61c-.1.88-.17,1.76-.2,2.63-.04.87-.05,1.75-.05,2.64s.01,1.76.05,2.63c.03.87.1,1.75.21,2.63h-3.31c.12-.87.19-1.75.22-2.62.02-.88.04-1.76.04-2.64s-.02-1.77-.05-2.64-.1-1.75-.21-2.63h3.31Z"/>
  <path class="st2" d="M89.62,57.14c-.75-.05-1.5-.08-2.25-.09-.75-.01-1.49-.02-2.23-.02h-.7c-.22,0-.45.01-.68.03-.18.02-.36.04-.55.05-.18.01-.36.02-.55.03.11-.88.18-1.76.21-2.63s.05-1.75.05-2.63-.01-1.77-.05-2.64c-.03-.87-.1-1.75-.21-2.63.31,0,.62,0,.93.02.3.01.61.02.93.02.75,0,1.49,0,2.23,0s1.48-.02,2.23-.04v1.64c-.5-.14-.99-.24-1.48-.3-.49-.06-.99-.08-1.51-.08-.04,0-.08,0-.12,0-.04,0-.08,0-.12,0v3.25c.05.01.09.02.12.02h.14c.43,0,.88-.02,1.36-.06.48-.04.93-.09,1.36-.14v1.55c-.43-.05-.85-.09-1.28-.13-.43-.04-.86-.05-1.29-.05-.07,0-.14,0-.21,0-.07,0-.13,0-.2,0v1.44c0,.32,0,.64.02.96,0,.31.04.63.09.94.28.07.58.11.88.11.52,0,1.03-.04,1.53-.11.5-.07,1-.14,1.5-.21l-.12,1.67Z"/>
  <path class="st2" d="M97.14,52.87c.15.17.29.36.43.56.14.2.27.4.4.59.12.19.22.34.29.46.29.45.59.89.87,1.33.29.44.58.88.87,1.33h-3.69c-.41-.79-.83-1.55-1.26-2.29-.11-.19-.23-.39-.34-.59s-.25-.38-.39-.55c-.06-.08-.12-.14-.17-.19-.05-.05-.13-.07-.23-.08.02.63.04,1.25.07,1.86.02.61.08,1.23.16,1.85h-3.31c.11-.88.18-1.76.21-2.63.03-.87.05-1.75.05-2.63s-.02-1.77-.05-2.64c-.03-.87-.1-1.75-.21-2.63h4.76c.43,0,.84.05,1.25.14.41.09.77.24,1.09.46.32.21.57.49.77.84.19.35.29.77.29,1.28,0,.85-.22,1.53-.65,2.03-.43.5-1.06.86-1.88,1.07.05.02.1.04.14.05.05.01.09.03.13.05.12.06.25.18.4.35M93.92,52.06s.08,0,.16,0c.08,0,.13,0,.16,0,.3,0,.56-.07.78-.21.21-.14.38-.32.51-.55.13-.22.22-.47.27-.75.06-.28.08-.55.08-.81,0-.51-.12-.92-.36-1.25-.24-.33-.63-.49-1.17-.49h-.43v4.06Z"/>
  <path class="st2" d="M42.56,70.47c-.75-.05-1.5-.08-2.25-.09-.75-.01-1.49-.01-2.23-.01h-.7c-.23,0-.47.01-.7.03-.18.02-.36.04-.54.05s-.36.02-.54.03c.11-.88.18-1.76.21-2.63s.05-1.75.05-2.63-.02-1.77-.05-2.64c-.03-.87-.1-1.75-.21-2.63h3.31c-.1.88-.17,1.76-.21,2.63-.04.87-.05,1.75-.05,2.64,0,.29,0,.59,0,.88,0,.29,0,.59,0,.88,0,.33,0,.67.02,1.02,0,.34.04.68.09,1.02.15.05.3.08.44.09s.29.01.44.01c.52,0,1.03-.04,1.53-.11.5-.07,1-.14,1.5-.21l-.12,1.67Z"/>
  <path class="st2" d="M50.72,70.47c-.75-.05-1.5-.08-2.25-.09-.75-.01-1.49-.01-2.24-.01h-.7c-.22,0-.45.01-.68.03-.18.02-.37.04-.55.05s-.36.02-.55.03c.11-.88.18-1.76.21-2.63s.05-1.75.05-2.63-.02-1.77-.05-2.64c-.03-.87-.1-1.75-.21-2.63.31,0,.62,0,.93.02.3.02.61.02.93.02.75,0,1.49,0,2.23,0s1.48-.02,2.23-.04v1.64c-.5-.14-.99-.24-1.48-.3-.49-.06-.99-.08-1.51-.08-.04,0-.08,0-.12,0-.04,0-.08,0-.12,0v3.25c.05.01.09.01.12.01h.14c.43,0,.88-.02,1.36-.06.48-.04.93-.09,1.36-.14v1.55c-.43-.05-.85-.09-1.28-.13-.43-.04-.86-.05-1.29-.05-.07,0-.14,0-.21,0-.07,0-.13,0-.2,0v1.44c0,.32,0,.64.01.96s.04.63.09.94c.28.07.58.11.88.11.52,0,1.03-.04,1.53-.11.5-.07,1-.14,1.5-.21l-.12,1.67Z"/>
  <path class="st2" d="M57.93,59.94c.42,1.15.85,2.28,1.3,3.4.45,1.12.92,2.24,1.41,3.36.28.64.58,1.27.88,1.89.3.62.61,1.25.91,1.88h-3.53c-.19-.52-.39-1.02-.61-1.51-.21-.49-.42-.99-.62-1.5h-3.3c-.18.5-.37.99-.55,1.49-.19.5-.35,1-.49,1.52h-2.1c.91-1.84,1.78-3.7,2.6-5.56.35-.82.7-1.64,1.05-2.46.34-.82.66-1.66.96-2.51h2.1ZM54.77,66.15h2.45l-1.28-3.19-1.17,3.19Z"/>
  <path class="st2" d="M72.13,65.61c-.07.53-.13,1.05-.17,1.57-.04.52-.06,1.05-.06,1.57,0,.23,0,.46.02.67.01.22.05.44.1.67-.27.1-.59.19-.94.26-.36.07-.72.13-1.1.18s-.75.08-1.12.1c-.37.02-.7.03-.99.03-.77,0-1.5-.11-2.19-.34-.69-.23-1.29-.56-1.81-1-.52-.44-.92-.98-1.22-1.61-.3-.63-.45-1.36-.45-2.18,0-.94.18-1.77.53-2.49.35-.72.83-1.32,1.43-1.8.6-.48,1.29-.85,2.08-1.09.79-.25,1.63-.37,2.51-.37.51,0,1.02.03,1.54.09.52.06,1.01.23,1.45.52l-.5,2.05h-.29c-.29-.48-.65-.83-1.06-1.07-.41-.24-.89-.36-1.45-.36-.59,0-1.08.12-1.49.37-.41.25-.73.57-.98.97-.25.4-.42.85-.53,1.36-.11.5-.16,1.01-.16,1.51,0,.47.05.95.14,1.45.1.5.26.95.49,1.36.23.41.54.75.92,1.01s.85.4,1.41.4c.15,0,.3,0,.45-.02.15,0,.29-.03.43-.06.01-.12.02-.24.02-.37v-.38c0-.51-.02-1.01-.05-1.51-.04-.5-.09-1-.16-1.5h3.21Z"/>
  <path class="st2" d="M77.04,59.94c-.14,1.04-.22,2.09-.24,3.15-.02,1.05-.03,2.11-.03,3.16,0,.41.02.79.06,1.16.04.37.14.7.29.98.15.28.37.51.66.68.29.17.68.26,1.18.26.63,0,1.1-.13,1.43-.39.32-.26.56-.59.71-.99.15-.4.23-.85.24-1.34.02-.49.02-.96.02-1.42,0-.89-.03-1.77-.09-2.64-.06-.87-.14-1.74-.24-2.61h2.01c-.09.85-.17,1.7-.23,2.55-.04.64-.07,1.27-.08,1.9-.01.63-.02,1.26-.02,1.9,0,1.5-.34,2.6-1.03,3.3-.68.7-1.78,1.05-3.29,1.05-.63,0-1.21-.05-1.75-.16-.54-.11-1-.3-1.4-.57-.39-.27-.7-.64-.93-1.1-.22-.46-.33-1.05-.33-1.76,0-.35,0-.7.02-1.04,0-.34.01-.69.01-1.04,0-.84-.02-1.68-.06-2.51-.04-.84-.11-1.67-.21-2.52h3.31Z"/>
  <path class="st2" d="M91.73,70.47c-.75-.05-1.5-.08-2.25-.09-.75-.01-1.49-.01-2.23-.01h-.7c-.22,0-.45.01-.68.03-.18.02-.36.04-.55.05-.18.01-.37.02-.55.03.11-.88.18-1.76.21-2.63s.05-1.75.05-2.63-.02-1.77-.05-2.64c-.03-.87-.1-1.75-.21-2.63.31,0,.62,0,.93.02.3.02.61.02.93.02.75,0,1.49,0,2.23,0,.73,0,1.48-.02,2.23-.04v1.64c-.5-.14-.99-.24-1.48-.3-.49-.06-1-.08-1.51-.08-.04,0-.08,0-.12,0-.04,0-.08,0-.12,0v3.25c.05.01.09.01.12.01h.14c.43,0,.88-.02,1.36-.06s.93-.09,1.36-.14v1.55c-.43-.05-.85-.09-1.28-.13-.43-.04-.86-.05-1.29-.05-.07,0-.14,0-.2,0-.07,0-.13,0-.21,0v1.44c0,.32,0,.64.02.96,0,.31.04.63.09.94.28.07.58.11.88.11.52,0,1.03-.04,1.53-.11.5-.07,1-.14,1.5-.21l-.12,1.67Z"/>
  <path class="st0" d="M32.53,60.22c-.01-.13-.09-.33-.14-.41-.13-.19-.31-.34-.53-.4-.53-.14-1.06.2-1.46.54-.08-.19-.16-.38-.21-.59l-.39-.83c-.15-.36-.43-.57-.51-1-.78-1.15-1.15-2.72-2.34-3.48-.24-.3-.49-.59-.8-.83-.32-.55-.96-.75-1.15-1.39-.04-.14,0-.34-.07-.49-.05-.1-.18-.13-.32-.25-.11-.09-.2-.23-.29-.29-.18-.13-.39-.23-.57-.35-1.91,2.09-4.06,3.78-6.28,5.04.05.06.09.12.13.18.2.3.48.57.53.95.02.17.1.32.12.48.01.13.07.24.12.36.06.14.05.3.06.45,0,.13.07.23.1.35.01.06-.02.11,0,.17.01.04.05.05.07.08.04.09.02.22.04.32.04.17.09.35.08.53-.02.37.06.75.08,1.12.05.55.07,1.11.05,1.66-.01.29-.03.57-.06.86-.01.15-.03.29-.05.43-.01.09,0,.36-.07.43-.31.34-.42.79-.71,1.12-.21.25-.54.44-.8.66-.16.13-.31.26-.47.39-.12.1-.28.18-.37.31-.06.1-.1.22-.16.33-.12.26-.25.51-.38.76-.09.18-.16.36-.24.54-.08.16-.19.29-.28.43-.12.17-.15.38-.3.53-.11.11-.23.25-.31.35-.23.29-.32.4-.53.71-.2.31-.39.67-.63.93-.21.23-.51.41-.75.61-.26.21-.49.35-.75.62-.16.33-.13.71-.2,1.06-.03.15-.12.26-.12.41,0,.17.09.37.12.56.07.35-.02.85.28,1.11.35.3.92.45,1.36.45.73-.07,1.29-.12,2.04-.18.19-.09.15-.47.14-.53,0-.11-.07-.18,0-.29.99-1.22,1.79-2.62,3.02-3.6.17.24.38.47.58.73.18.23.36.58.59.73.26.18.55.32.92.34.41-.22.21-1.92.61-2.58.3-.06.52-.19.8-.27,1.81-1.82,3.85-3.68,5.79-5.45.28-.26.57-.58.85-.75.51-.32,1.13-.43,1.65-.71.86-1.01,2.25-2.62,2.1-2.97M14.98,74.89c-.18.19-.48.18-1.17.15-.69-.03-.64-.06-1.04-.23-.33-.14-.44-.09-.36-.96.08-.92.8-.75,1.58-.5.79.25.8.33.83.49.04.17.2.66.2.66,0,0,.09.26-.03.38M20.67,71.82c-.02.23.02.38-.24.34-.42-.07-.43-.39-.6-.64-.2-.29-.3-.49-.3-.49.1-.24.15-.15.39-.2.23-.05.49-.15.6-.15s.06-.08.14.38c.07.39.04.52,0,.77M24.5,61.75c-.6-.21-1.33-.53-2.19-.34,0,.02-.02.02-.02.05.05-.06.66,0,.49.02-.47.03-1,.05-1.36.17.69-.67,2.21-.52,3.02-.07.13.07.15.07.26.14.08.18-.02.08-.19.03M32.19,60.49c-.09.08-.09.09-.17.17-.15.16-.11.16-.3.31-.09.09-.15.13-.31.26-.18.17-.31.24-.54.42-.22.18-.39.34-.63.54-.08.06-.33.22-.79.45-.19.12-.43.24-.69.18.22-.21.43-.49.75-.76.46-.37,1.2-.49,1.17-1.14-.02-.33-.13-.62-.26-.92.08-.05.17-.1.23-.15.14-.11.32-.2.48-.28.22-.11.45-.13.69-.08.24.05.38.28.5.49.05.09.09.19.06.26-.11.1-.14.16-.2.24"/>
  <path class="st1" d="M5.31,33.68c-1.52,2.12-2.66,4.35-3.42,6.56.71-1.73,1.66-3.45,2.89-5.07.43-.57.87-1.1,1.33-1.61-.29.05-.57.09-.81.12"/>
  <path class="st1" d="M26.88,26.12c-5.5-4.15-14.79-1.14-20.92,6.7.27-.02.6-.04.93-.07,5.51-5.53,12.9-7.26,17.56-3.75,5.28,3.98,5.04,13.21-.53,20.6-2.87,3.8-6.59,6.37-10.25,7.44,4.28-1,8.8-4,12.24-8.57,6.13-8.12,6.56-18.13.97-22.34"/>
  <path class="st0" d="M18.66,30.31c.13,0,.26,0,.4.04.02,0,.04,0,.05,0,.05.02.06.09.13.09.08-.06.23-.05.36-.05.1.05.14.17.22.24.05-.2.34-.26.51-.15.11.07.05.2.17.24-.03-.17.08-.2.18-.24.09.01.11.04.15.08,0,0,.05.11.05.11.05.16.08.31.14.47.04.11.05.24.09.31h0s0,.12,0,.12c-.08.04-.18.06-.29.07.03.09.1.14.12.24-.2.15-.46-.08-.66,0,0,.17.16.2.19.34-.13.23-.39.03-.61.02-.1,0-.18.07-.27.05-.09-.02-.17-.18-.24-.1-.02.09.26.14.22.27.37-.02.62.31.97.34.09,0,.2-.04.29-.02.27.05.53.51.55,1.22,0-.16.13-1.1.13-1.27.17-.07.28-.19.44-.27.02-.29.04-.59.07-.87-.27-.05-.56-.08-.83-.13-.07-.24-.19-.88-.47-1.01,0,0,0,0,.01,0-.23-.13-.59-.13-.84-.15-.17,0-.35-.01-.51,0-.08,0-.24.04-.31.01-.17-.07-.27-.1-.45-.08-.06.03-.07.05-.08.06-.04.04-.08.09-.02.11.01-.06.07-.08.12-.11M16.01,30.87c-.04-.26.14-.29.29-.36.05,0,.1,0,.16-.01.12.02.19.17.26.23.01-.12.08-.19.14-.26.1,0,.19-.02.29-.03.15.02.14.21.25.27-.02-.3.42-.38.61-.19,0-.09-.04-.14-.05-.22l-2.11.22c-.12,0-.23,0-.27.03.26,0,.3.22.44.34M11.9,41.71s0,.02-.01.02c-.07.22-.14.43-.22.65-.02.06-.03.11-.04.14.46-.04.92-.1,1.37-.21.08-.02.16-.05.25-.07.11-.05.24-.11.33-.14,0-.07,0-.14-.01-.17-.03-.23-.07-.46-.12-.69-.03.01-.06.02-.09.03-.26.08-.52.16-.78.22-.21.06-.42.1-.62.12-.02.04-.03.07-.05.1M22.63,49.56c-.02-.09-.04-.19-.05-.29-.57-.82-1.06-1.68-1.58-2.51-.17-.28-.34-.6-.53-.85-.18-.23-.45-.43-.68-.66-.68-.68-1.41-1.3-2.12-1.92.54-1.05,1.03-2.19,1.61-3.19.19-.33.45-.69.58-1.02.1-.26.15-.58.22-.88.22-.9.41-1.73.65-2.63.14-.11.27-.23.27-.49-.2-.02-.3-.16-.44-.24-.38.18-1.12.1-1.19-.24-.09-.47.58-.51.63-.83-.17,0-.48.16-.56.02.16-.12.36-.19.51-.32-.3-.25-.73-.37-1.09-.56-.05-.38-.23-.62-.22-1.07.05-.12.12-.19.15-.36.02-.07.02-.1-.02-.21-.12,0-.21.02-.27-.02-.13-.12,0-.37-.1-.54-.05.17-.07.39-.17.51,0-.13-.05-.23-.1-.32.03.36.14.64.22.95-.27-.04-.37.08-.61.07,0,.07-.03.12-.08.15-.55.19-1.21.26-1.7.51-.22-.23-.28-.63-.48-.88.09.37.3.66.41,1.07.72-.2,1.3-.54,2.07-.68.07-.08.25-.13.39-.07.02.13.12.29.05.44-.28-.04-.11,0-.29.05-.06-.03-.07.05-.18.06-.12.04-.18.04-.3.11-.12.05-.1.06-.22.08-.11.05.02,0-.11.05-.12.02-.13.03-.24.07-.18.05-.11.03-.26.07-.23.06-.09.02-.33.09-.35.07-.04,0-.36.09-.15-.21-.3-.41-.49-.58-.08.07-.1-.12-.12-.29-.2-.07-.26-.27-.27-.54-.07-.01-.17.15-.29.17-.19-.08-.32-.33-.58-.36-.21-.03-.54.08-.8.12-.2.03-.4.04-.57.08-1.28.12-5.68.84-6.49.96.85-.07,5.62-.65,6.67-.88.47-.04.95-.17,1.38-.16.04.06.08.13.07.24-.66.22-1.35.29-2.04.39-.4.06-1.66.32-1.9.36-1.02.2-2.18.42-3.31.61-.33.06-.67.11-1,.17-1.95.35-4.02.51-6.06.27-.16-.02-.23.01-.26.04.02-.09.09-.17.16-.21.25-.12.56-.24.86-.29h.15c.06-.05-.09-.02-.15-.02-.25,0-.67,0-.85,0-.05.07-.14.16-.15.27,0,.01-.06.28-.06.29v.02c.08.4.14.83.36,1.09.71.01,1.36.21,2.02.22.54,0,1.08-.07,1.61-.1.43-.02.87-.01,1.31-.05.77-.06,1.56-.26,2.34-.39,2.38-.39,4.73-.82,6.96-1.29.22-.23.37-.55.85-.39.18.38.32.79.46,1.19.36.11.62.39,1.07.22-.2-.92.66-1,1.22-1.29-.03.09.02.13.03.19.5,0,.43.59.66.88-.49-.18-.98.02-1.29.19-.12.07-.36.2-.39.29-.05.19.08.59.12.88.05.31.14.65.12.9-.02.3-.21.62-.29.88-.11.33-.19.6-.26.92-.66.6-1.21,1.29-1.92,1.83-.03-.1-.04-.22-.07-.33-.08.07-.17.14-.28.2,0,0-.01,0-.02.01-.02.01-.04.02-.06.03.02.05.04.11.05.17.05.12.09.24.13.36.02-.01.03-.02.04-.03.05-.05.1-.09.15-.14.04-.06.07-.12.12-.16.05.14,0,.22-.09.29-.06.07-.12.13-.19.19.08.34.11.7.1,1.03-.93.69-2.25.94-3.39,1.01-.33.02-.66-.26-.92-.45-.22-.16-.44-.32-.66-.48,0,0,0,0-.01-.01-.29-.21-.56-.47-.61-.85,0,0,0,0,0-.01,0,0,0,0,0,0-.02-.12-.01-.25.02-.4.02.1.03.21.04.33.02.06.05.11.07.18.09.3.35.46.59.64.35.27.71.53,1.09.76.14.08.25.15.41.14h0s0,0,0,0c.1-.3.21-.61.31-.92-.06,0-.13.02-.19.02-.43.02-.88.21-1.23-.08-.11-.05-.18-.13-.21-.24.16.01.24.1.34.19.05.02.11.03.14.04.04.01.08.01.12.02.25,0,.48-.02.71-.04.01,0,.02,0,.03,0,.12-.02.23-.04.34-.05.06-.2.13-.39.2-.59,0-.02.01-.04.02-.06-.16.04-.31.07-.46.1-.45.12-.91.24-1.37.34-.09.02-.17.02-.25,0,0,0-.01,0-.01,0,0,0,0,0,0,0-.11-.03-.2-.09-.28-.21,0-.02-.03-.07-.05-.13-.1-.16-.15-.35-.08-.6-.02.39.25.76.5.82.11,0,.23-.05.32-.06.07-.01.13-.03.19-.05,0,0,0,0,0,0,0,0,0,0,0,0,.47-.11.93-.23,1.4-.36.64-.18,1.28-.37,1.9-.6.07-.03.14-.06.21-.08.05-.02.07-.03.09-.04.1-.04.19-.08.29-.13,0,0,0,0,0,0,.07-.04.12-.07.19-.1.04-.03.09-.06.14-.09.02-.02.04-.03.05-.04,0-.15,0-.12-.05-.24-.09.02-.22.1-.3.12-.27.06-.2.05-.43.08-.06-.24-.2-.41-.26-.65.33-.2.76-.29.78-.8-.43-.14-.66-.33-1.06-.51-.07-.09-.25-.38-.34-.57-.17-.26-.12-.15-.34-.43-.18-.23-.4-.45-.59-.55-.17-.08-.45-.17-.67-.23-.23-.06-.45-.17-.68-.17-.16,0-.36.06-.54.1-.51.1-.66.17-.98.41-.14.11-.33.23-.41.34-.04.05-.14.17-.17.22-.07.12-.13.17-.19.27-.11.2-.1.22-.17.36-.17.34-.32.69-.38,1.11,0,1.18.69,1.65.92,2.62.02-.13-.07-.28,0-.39.08.12.05.36.07.54.18.21.49.28.59.58-.23-.04-.41-.39-.59-.4.29.24.55.51.86.67.05.02.12,0,.17.02.26.12.46.44.7.51.11.03.14-.02.22.1-.55.09-.71-.64-1.04-.49-.25.11-.3.08-.59.12-.05.23.25.56.29.78.19.27,0,.41.17.71.17.15.27.19.42.29.08.58.03,1.19.22,1.75.21.42.71.7,1.05,1.07.37.41.88.84,1.16,1.12,1,.97,1.96,1.79,3,2.72.26.24.89.68,1.02.97.12.25.16.59.24.9.08.3.22.63.25.9.06.48-.12.94,0,1.46.02.08.07.17.14.27,1.99-1.28,3.87-2.95,5.5-4.97.12-.15.23-.3.35-.45-.13-.13-.29-.23-.5-.27M14.39,40.07s-.06-.01-.09,0c0,0-.02,0-.02,0-.01,0-.02,0-.02,0-.19.07-.38.13-.54.19-.09.03-.19.06-.28.09-.02,0-.03.01-.05.02,0,.06,0,.1.01.15.05.17.09.34.14.5.29-.1.57-.21.85-.33.07-.03.13-.07.2-.11-.02-.08-.04-.16-.07-.24-.03-.1-.07-.2-.12-.29M13.41,41.08c-.04-.2-.08-.46-.19-.63,0,0,0-.01,0-.01-.2.06-.39.13-.59.19-.13.04-.26.09-.39.12-.07.21-.14.42-.21.63,0,.02-.01.04-.01.06.11-.02.22-.03.34-.06.31-.06.61-.15.91-.24.06-.01.11-.04.16-.06M13.58,41.22c.06.26.11.53.14.8.29-.07.56-.22.81-.32,0,0,.01,0,.02-.01.07-.05.12-.08.16-.1,0-.27-.03-.55-.08-.82-.02,0-.05,0-.07,0-.3.18-.67.31-.97.4,0,0,0,.02,0,.03"/>
</svg>