<svg width="16" height="16" viewBox="0 0 16 16" fill="none" xmlns="http://www.w3.org/2000/svg">
<path d="M11.4048 0.072L7.0416 5.4096L7.1232 5.456L11.1648 4.5472L0 15.9904L3.8512 8.3792L0.8448 8.7104C2.496 6.2368 3.9696 3.6448 5.5376 1.1152L11.3888 0L11.4064 0.072H11.4048Z" fill="url(#paint0_linear_1327_3935)"/>
<path d="M15.9471 7.32643L11.1311 10.0592C11.0495 10.1072 10.9599 10.1376 10.8687 10.152V15.9952C10.9599 15.9808 11.0495 15.9488 11.1311 15.9024L15.5935 13.368C15.8431 13.2256 15.9999 12.9584 15.9999 12.6704V7.60483C15.9999 7.50723 15.9807 7.41443 15.9471 7.32483V7.32643ZM12.5279 13.7632C11.7439 13.9056 11.4703 12.632 12.2367 12.4368C13.0191 12.2944 13.2975 13.5632 12.5279 13.7632ZM12.9039 11.4464C12.4351 12.208 11.4831 11.416 11.8575 10.7072C12.3247 9.94723 13.2783 10.736 12.9039 11.4464ZM14.8623 12.4464C14.3935 13.208 13.4415 12.416 13.8159 11.7072C14.2831 10.9472 15.2367 11.736 14.8623 12.4464ZM14.8623 10.4096C14.3935 11.1712 13.4415 10.3792 13.8159 9.67043C14.2943 8.90243 15.2367 9.71363 14.8623 10.4096Z" fill="url(#paint1_linear_1327_3935)"/>
<path d="M10.4718 9.82879C10.635 9.92159 10.8366 9.92159 10.9998 9.82879C11.0206 9.80479 15.7022 7.17119 15.7182 7.14879L15.8126 7.09439C15.7518 7.02079 15.6782 6.95839 15.5934 6.91039L11.547 4.61279L7.88623 8.36479C9.13583 9.07199 10.4702 9.82399 10.4702 9.82879H10.4718ZM10.7342 6.49279C11.2126 6.49279 11.603 6.81119 11.603 7.19999C11.5662 8.13599 9.90383 8.13599 9.86543 7.19999C9.86543 6.80959 10.2558 6.49279 10.7342 6.49279Z" fill="url(#paint2_linear_1327_3935)"/>
<path d="M5.47217 12.6752C5.47217 12.9632 5.62737 13.2304 5.87857 13.3728L10.341 15.9072C10.4242 15.9536 10.5122 15.984 10.6034 16V10.1536C10.5122 10.1392 10.4226 10.1088 10.341 10.0624L7.69777 8.56158L5.47377 10.8416V12.6752H5.47217ZM8.87697 10.6384C9.34417 9.87838 10.2978 10.6672 9.92337 11.3776C9.45457 12.1392 8.50257 11.3472 8.87697 10.6384ZM7.94897 10.9872C8.73137 10.8448 9.00977 12.1136 8.24017 12.3136C7.45617 12.456 7.18257 11.1824 7.94897 10.9872ZM6.26737 11.9248C6.73457 11.1648 7.68817 11.9536 7.31377 12.664C6.84497 13.4256 5.89297 12.6336 6.26737 11.9248Z" fill="url(#paint3_linear_1327_3935)"/>
<defs>
<linearGradient id="paint0_linear_1327_3935" x1="5.7032" y1="0" x2="5.7032" y2="15.9904" gradientUnits="userSpaceOnUse">
<stop/>
<stop offset="1" stop-color="#666666"/>
</linearGradient>
<linearGradient id="paint1_linear_1327_3935" x1="13.4343" y1="7.32483" x2="13.4343" y2="15.9952" gradientUnits="userSpaceOnUse">
<stop/>
<stop offset="1" stop-color="#666666"/>
</linearGradient>
<linearGradient id="paint2_linear_1327_3935" x1="11.8494" y1="4.61279" x2="11.8494" y2="9.89839" gradientUnits="userSpaceOnUse">
<stop/>
<stop offset="1" stop-color="#666666"/>
</linearGradient>
<linearGradient id="paint3_linear_1327_3935" x1="8.03777" y1="8.56158" x2="8.03777" y2="16" gradientUnits="userSpaceOnUse">
<stop/>
<stop offset="1" stop-color="#666666"/>
</linearGradient>
</defs>
</svg>
