<svg xmlns="http://www.w3.org/2000/svg" width="19.679" height="25" viewBox="0 0 19.679 25">
  <path id="logout2" d="M101.61,63.2h1.124c.43.091.859.146,1.271.274a6.549,6.549,0,0,1,4.717,6.234,1.09,1.09,0,0,1-.823,1.106,1.127,1.127,0,0,1-1.38-1.188,4.352,4.352,0,0,0-8.684-.274c-.064,1.207-.018,2.422-.018,3.638,0,.009.009.027.037.064H109.48a2.423,2.423,0,0,1,2.514,2.386c.018,3.857.009,6.508,0,10.366a2.418,2.418,0,0,1-1.618,2.239c-.155.055-.32.11-.484.155H94.434c-.1-.027-.192-.064-.293-.091a2.42,2.42,0,0,1-1.81-2.3c-.009-3.857-.009-6.508,0-10.366a2.4,2.4,0,0,1,2.029-2.349c.393-.055.814-.046,1.234-.064v-.283c0-1.033-.009-2.057,0-3.1a6.514,6.514,0,0,1,4.452-6.069C100.568,63.4,101.1,63.319,101.61,63.2Z" transform="translate(-92.325 -63.2)" fill="#3a3a3a"/>
</svg>
