<svg width="22" height="20" viewBox="0 0 22 20" fill="none" xmlns="http://www.w3.org/2000/svg">
<path d="M20.1725 12.8392H20.3047C20.5221 12.8389 20.7306 12.7525 20.8842 12.5988C21.038 12.4452 21.1245 12.2367 21.1247 12.0194V10.6754C21.1245 10.458 21.038 10.2495 20.8842 10.0959C20.7306 9.9423 20.5221 9.85588 20.3047 9.85557H9.24281C9.02558 9.85588 8.81709 9.9423 8.66351 10.0959C8.50973 10.2497 8.42331 10.458 8.423 10.6754V12.0194C8.42331 12.2368 8.50973 12.4451 8.66351 12.5987C8.81712 12.7525 9.0256 12.8389 9.24281 12.8392H9.37502V17.9545C9.37502 18.1811 9.43378 18.4038 9.54551 18.6008H7.51624V10.151H8.02553C8.21119 10.151 8.36184 10.0003 8.36184 9.81465C8.36184 9.62884 8.21119 9.47834 8.02553 9.47834H6.88517V6.87445H10.8413V8.94917C10.8413 9.13483 10.992 9.28548 11.1776 9.28548C11.3635 9.28548 11.5141 9.13483 11.5141 8.94917V6.87445H16.705C16.8977 6.87461 17.054 7.03089 17.0541 7.22358V8.9492C17.0541 9.13485 17.2048 9.2855 17.3904 9.2855C17.5763 9.2855 17.7269 9.13485 17.7269 8.9492V7.22358C17.7266 6.95275 17.6188 6.693 17.4272 6.50141C17.2356 6.30981 16.9759 6.20214 16.705 6.20183H16.1515C16.144 6.20136 16.1369 6.19964 16.1293 6.19964L15.7247 6.19948C15.7683 6.08431 15.7906 5.96225 15.7909 5.83911V2.31053C15.9702 2.30928 16.1416 2.23724 16.2679 2.11019C16.3943 1.98298 16.4654 1.81107 16.4656 1.63182V0.679178C16.4654 0.499147 16.3939 0.326461 16.2665 0.199255C16.1393 0.0718886 15.9668 0.000312054 15.7867 0H7.94498C7.76495 0.000312534 7.59226 0.0718886 7.46505 0.199255C7.33769 0.326465 7.26611 0.499151 7.26596 0.679178V1.63198C7.26611 1.81123 7.33721 1.98298 7.46364 2.11019C7.58991 2.23724 7.76151 2.30929 7.94077 2.31054V5.83911C7.94093 5.96226 7.96327 6.08431 8.00687 6.19949H7.60228C7.59462 6.19949 7.58759 6.2012 7.58009 6.20167L1.02175 6.20183C0.750923 6.20214 0.491178 6.30982 0.299584 6.50141C0.107987 6.69301 0.000312054 6.95273 0 7.22358V9.12907C0.000312574 9.40005 0.107987 9.6598 0.299584 9.85124C0.491182 10.0428 0.750902 10.1507 1.02175 10.151H1.34977V17.5439C1.34977 17.9269 1.47776 18.299 1.71327 18.6009H0.336315C0.150502 18.6009 7.93595e-06 18.7516 7.93595e-06 18.9374C7.93595e-06 19.123 0.150502 19.2737 0.336315 19.2737H20.7887C20.9745 19.2737 21.125 19.123 21.125 18.9374C21.125 18.7516 20.9745 18.6009 20.7887 18.6009H20.0023C20.114 18.4039 20.1728 18.1812 20.1728 17.9546L20.1725 12.8392ZM11.0449 1.63444V0.673353C11.585 0.673509 12.1465 0.673665 12.6869 0.673978V1.63587L11.0449 1.63444ZM11.3605 2.31096L12.3709 2.31111V6.19959H11.3605V2.31096ZM13.0437 6.19959V2.31112H15.1183V5.83937C15.1181 6.03847 14.9568 6.19943 14.7579 6.19959L13.0437 6.19959ZM15.7931 0.679034L15.7869 1.63828L13.3596 1.63625V0.674362C14.7141 0.675299 15.7908 0.67669 15.7931 0.679034ZM7.94494 0.672626C7.94494 0.672626 9.01905 0.672626 10.3722 0.672939V1.63375L7.9387 1.63171L7.94494 0.672626ZM8.61334 5.83912V2.31099H10.6878V6.19947H8.97388C8.77478 6.19931 8.61349 6.03822 8.61334 5.83912ZM0.672356 9.12906V7.22357C0.672513 7.03088 0.828791 6.8746 1.02148 6.87444H6.21238V9.47833H1.02148C0.828791 9.47818 0.672512 9.3219 0.672356 9.12906ZM2.02211 17.5437V10.1508H6.84375V18.6007H3.07933C2.79897 18.6004 2.53032 18.489 2.33216 18.2908C2.13401 18.0926 2.02242 17.8241 2.02211 17.5437ZM20.4521 10.6749L20.452 12.0191C20.4518 12.1003 20.3859 12.1661 20.3046 12.1663H16.7424V10.528H20.3046C20.3859 10.528 20.452 10.5937 20.4521 10.6749ZM16.0698 10.528V12.1663H13.4774V10.528H16.0698ZM9.09574 12.0191V10.6751C9.09574 10.5938 9.16169 10.528 9.2428 10.528H12.805V12.1663H9.2428C9.16154 12.1661 9.09574 12.1004 9.09574 12.0191ZM10.0476 17.9545V12.8392H13.2504V18.601L10.6943 18.6009C10.5229 18.6007 10.3585 18.5326 10.2373 18.4113C10.1161 18.2902 10.0479 18.1258 10.0476 17.9545ZM13.923 18.601V12.8392H15.6248V18.601H13.923ZM17.3905 18.601L16.2975 18.6009V12.8391H19.4999V17.9544C19.4998 18.1256 19.4316 18.2899 19.3103 18.4112C19.1892 18.5323 19.025 18.6006 18.8535 18.6007L17.3905 18.601Z" fill="#333333"/>
<path d="M20.8432 5.01532L20.2084 4.16311L20.5886 3.03124C20.6159 2.92369 20.5847 2.80972 20.5064 2.73141C20.4281 2.65309 20.3141 2.62186 20.2066 2.64919L19.0736 3.02832L18.2214 2.39353C18.1305 2.32573 18.009 2.31482 17.907 2.36533C17.8052 2.41594 17.74 2.51925 17.7384 2.63288L17.7213 3.76445L16.7189 4.39211C16.6194 4.45425 16.5645 4.56814 16.5782 4.68442C16.5919 4.8007 16.6715 4.89847 16.7827 4.93533L17.9219 5.31387L18.2988 6.45351C18.3356 6.5646 18.4333 6.64423 18.5496 6.65791C18.6659 6.67158 18.7798 6.61676 18.8419 6.51727L19.4713 5.51443L20.6046 5.49908C20.7182 5.49749 20.8215 5.43229 20.8721 5.33043C20.9226 5.22847 20.9117 5.10695 20.8439 5.01602L20.8432 5.01532ZM19.299 4.9115C19.1962 4.91298 19.1009 4.96653 19.0462 5.0538L18.6714 5.65227L18.4483 4.97904L18.4484 4.97894C18.4184 4.88873 18.3478 4.81814 18.2576 4.78811L17.5844 4.56501L18.1828 4.19025L18.1827 4.19034C18.27 4.13566 18.3236 4.04037 18.325 3.93753L18.3346 3.23231L18.8382 3.60752L18.8381 3.60762C18.9174 3.66647 19.0206 3.68293 19.1144 3.65142L19.8224 3.41329L19.584 4.12121L19.5841 4.12111C19.5526 4.21493 19.569 4.31814 19.6279 4.39743L20.0031 4.90104L19.299 4.9115Z" fill="#FFCE01"/>
<path d="M5.82485 1.97842L4.76942 2.10206L3.97928 1.20688C3.8998 1.12944 3.78549 1.0995 3.67851 1.12817C3.57153 1.15683 3.4875 1.23991 3.4574 1.34672L3.21927 2.51742L2.24342 2.93807C2.13924 2.98291 2.06903 3.0827 2.0618 3.19625C2.05469 3.30977 2.11156 3.41789 2.20917 3.47608L3.18062 4.05664L3.22295 5.23862C3.22702 5.35586 3.29825 5.46027 3.40578 5.50657C3.51332 5.55286 3.63781 5.5328 3.72533 5.45494L4.62272 4.65767L5.79814 4.90106C5.91274 4.92477 6.03058 4.8799 6.10056 4.78604C6.17055 4.69218 6.18001 4.56614 6.12492 4.46258L5.57113 3.4161L6.12447 2.42697C6.17992 2.32778 6.1751 2.20571 6.11219 2.11095C6.04915 2.01623 5.93845 1.96491 5.82581 1.97817L5.82485 1.97842ZM4.96284 3.26384C4.91269 3.35364 4.91143 3.46294 4.95967 3.55393L5.29057 4.17772L4.59599 4.03431L4.59595 4.03418C4.50282 4.01508 4.40638 4.04092 4.33527 4.10403L3.80545 4.57552L3.78012 3.86985L3.78016 3.86998C3.77643 3.76706 3.72069 3.67304 3.63236 3.62034L3.02639 3.25948L3.60313 3.01095L3.60317 3.01109C3.69378 2.97184 3.75964 2.89069 3.77926 2.79369L3.92704 2.06146L4.42091 2.6219L4.42088 2.62177C4.48637 2.69597 4.58398 2.73331 4.68207 2.722L5.30581 2.64886L4.96284 3.26384Z" fill="#FFCE01"/>
</svg>
